<?xml version="1.0" encoding="utf-8"?>
<!-- Generator: Adobe Illustrator 23.0.3, SVG Export Plug-In . SVG Version: 6.00 Build 0)  -->
<svg version="1.1" id="Layer_1" xmlns="http://www.w3.org/2000/svg" xmlns:xlink="http://www.w3.org/1999/xlink" x="0px" y="0px"
	 viewBox="0 0 90 90" style="enable-background:new 0 0 90 90;" xml:space="preserve">
<style type="text/css">
	.st0{fill-rule:evenodd;clip-rule:evenodd;fill:#FFFFFF;}
	.st1{fill:#FE2780;}
</style>
<title>ico-tile-reparateurelectro</title>
<desc>Created with Sketch.</desc>
<g id="Nouvelle-Home-Stootie">
	<g id="Artboard" transform="translate(-33.000000, -22.000000)">
		<g id="Group-25" transform="translate(33.000000, 22.000000)">
			<g id="Rectangle">
				<path class="st0" d="M16,18h46.2c0.5,0,1,0.4,1,1v37.6c0,0.5-0.4,1-1,1H16c-0.5,0-1-0.4-1-1V19C15,18.4,15.4,18,16,18z"/>
				<path class="st1" d="M62.2,58.6H16c-1.1,0-2-0.9-2-2V19c0-1.1,0.9-2,2-2h46.2c1.1,0,2,0.9,2,2v37.6
					C64.2,57.7,63.3,58.6,62.2,58.6z M16,19v37.6l46.2,0l0-37.6L16,19z"/>
			</g>
			<g>
				<path class="st0" d="M24.4,32.2h29.4c2.6,0,4.6,2.1,4.6,4.6v11.4c0,2.6-2.1,4.6-4.6,4.6H24.4c-2.6,0-4.6-2.1-4.6-4.6V36.8
					C19.8,34.3,21.8,32.2,24.4,32.2z"/>
				<path class="st1" d="M53.8,53.9H24.4c-3.1,0-5.6-2.5-5.6-5.6V36.8c0-3.1,2.5-5.6,5.6-5.6h29.4c3.1,0,5.6,2.5,5.6,5.6v11.4
					C59.4,51.3,56.9,53.9,53.8,53.9z M24.4,33.2c-2,0-3.6,1.6-3.6,3.6v11.4c0,2,1.6,3.6,3.6,3.6h29.4c2,0,3.6-1.6,3.6-3.6V36.8
					c0-2-1.6-3.6-3.6-3.6H24.4z"/>
			</g>
			<g>
				<path class="st0" d="M40,37.6h6.1v3.3c0,1.1-0.9,2.1-2.1,2.1h-2c-1.1,0-2.1-0.9-2.1-2.1V37.6z"/>
				<path d="M44,43.7h-2c-1.5,0-2.8-1.2-2.8-2.8v-3.3c0-0.4,0.3-0.7,0.7-0.7h6.1c0.4,0,0.7,0.3,0.7,0.7v3.3
					C46.8,42.5,45.5,43.7,44,43.7z M40.6,38.3v2.7c0,0.8,0.6,1.4,1.4,1.4h2c0.8,0,1.4-0.6,1.4-1.4v-2.7H40.6z"/>
			</g>
			<g id="Line-9">
				<path class="st0" d="M43,43v6.1"/>
				<path d="M43,49.8c-0.4,0-0.7-0.3-0.7-0.7V43c0-0.4,0.3-0.7,0.7-0.7s0.7,0.3,0.7,0.7v6.1C43.7,49.5,43.4,49.8,43,49.8z"/>
			</g>
			<g id="Line-10">
				<path class="st0" d="M41,49.1h4.4"/>
				<path d="M45.4,49.8H41c-0.4,0-0.7-0.3-0.7-0.7s0.3-0.7,0.7-0.7h4.4c0.4,0,0.7,0.3,0.7,0.7S45.7,49.8,45.4,49.8z"/>
			</g>
			<g id="Rectangle-Copy-19">
				<path class="st0" d="M48.8,37.6H55v3.3c0,1.1-0.9,2.1-2.1,2.1h-2c-1.1,0-2.1-0.9-2.1-2.1V37.6z"/>
				<path d="M52.9,43.7h-2c-1.5,0-2.8-1.2-2.8-2.8v-3.3c0-0.4,0.3-0.7,0.7-0.7H55c0.4,0,0.7,0.3,0.7,0.7v3.3
					C55.6,42.5,54.4,43.7,52.9,43.7z M49.5,38.3v2.7c0,0.8,0.6,1.4,1.4,1.4h2c0.8,0,1.4-0.6,1.4-1.4v-2.7H49.5z"/>
			</g>
			<g id="Line-9-Copy">
				<path class="st0" d="M51.9,43v6.1"/>
				<path d="M51.9,49.8c-0.4,0-0.7-0.3-0.7-0.7V43c0-0.4,0.3-0.7,0.7-0.7s0.7,0.3,0.7,0.7v6.1C52.6,49.5,52.3,49.8,51.9,49.8z"/>
			</g>
			<g id="Line-10-Copy">
				<path class="st0" d="M49.8,49.1h4.4"/>
				<path d="M54.2,49.8h-4.4c-0.4,0-0.7-0.3-0.7-0.7s0.3-0.7,0.7-0.7h4.4c0.4,0,0.7,0.3,0.7,0.7S54.6,49.8,54.2,49.8z"/>
			</g>
			<g id="Oval">
				<ellipse class="st0" cx="20.4" cy="22.6" rx="2" ry="2"/>
				<path d="M20.4,25.6c-1.7,0-3-1.3-3-3s1.4-3,3-3s3,1.3,3,3S22.1,25.6,20.4,25.6z M20.4,21.6c-0.6,0-1,0.4-1,1s0.4,1,1,1
					s1-0.4,1-1S21,21.6,20.4,21.6z"/>
			</g>
			<g>
				<path class="st0" d="M37.1,20.7h21c0.6,0,1,0.4,1,1v2c0,0.6-0.4,1-1,1h-21c-0.6,0-1-0.4-1-1v-2C36.1,21.2,36.6,20.7,37.1,20.7z"
					/>
				<path d="M58.1,25.7h-21c-1.1,0-2-0.9-2-2v-2c0-1.1,0.9-2,2-2h21c1.1,0,2,0.9,2,2v2C60.1,24.8,59.2,25.7,58.1,25.7z M37.1,21.7v2
					l21,0l0-2L37.1,21.7z M37.1,20.7v1l0,0V20.7z"/>
			</g>
			<g id="Line-2">
				<path class="st0" d="M15,27.5h48.2"/>
				<rect x="15" y="26.4" class="st1" width="48.2" height="2"/>
			</g>
			<g>
				<path class="st0" d="M71.2,49.8L71.2,49.8c0.5,0.8,0.2,1.9-0.6,2.4L50.8,63.7c-0.8,0.5-1.9,0.2-2.4-0.6l0,0
					c-0.5-0.8-0.2-1.9,0.6-2.4l19.8-11.4C69.6,48.7,70.7,49,71.2,49.8z"/>
				<path class="st1" d="M49.9,64.9c-0.2,0-0.5,0-0.7-0.1c-0.7-0.2-1.3-0.7-1.7-1.3c-0.4-0.6-0.5-1.4-0.3-2.1
					c0.2-0.7,0.7-1.3,1.3-1.7l19.8-11.4c1.3-0.8,3-0.3,3.8,1v0c0.8,1.3,0.3,3-1,3.8L51.3,64.5C50.8,64.8,50.4,64.9,49.9,64.9z
					 M69.6,50c-0.1,0-0.3,0-0.4,0.1L49.5,61.5c-0.2,0.1-0.3,0.3-0.3,0.5s0,0.4,0.1,0.6c0.1,0.2,0.3,0.3,0.5,0.4
					c0.2,0.1,0.4,0,0.6-0.1L70,51.4c0.4-0.2,0.5-0.7,0.3-1C70.1,50.1,69.9,50,69.6,50z"/>
			</g>
			<g>
				<path class="st0" d="M73.6,47.8l0.6,1c0.5,0.9,0.2,2-0.7,2.5l-3.3,1.9c-0.9,0.5-2,0.2-2.5-0.7l-0.6-1c-0.5-0.9-0.2-2,0.7-2.5
					l3.3-1.9C71.9,46.6,73.1,46.9,73.6,47.8z"/>
				<path class="st1" d="M69.3,54.4c-1,0-1.9-0.5-2.5-1.4l-0.6-1c-0.4-0.7-0.5-1.4-0.3-2.2c0.2-0.7,0.7-1.3,1.3-1.7l3.3-1.9
					c0.7-0.4,1.4-0.5,2.2-0.3c0.7,0.2,1.3,0.7,1.7,1.3l0.6,1c0.4,0.7,0.5,1.4,0.3,2.2c-0.2,0.7-0.7,1.3-1.3,1.7l-3.3,1.9
					C70.3,54.3,69.8,54.4,69.3,54.4z M72,47.9c-0.1,0-0.3,0-0.4,0.1l-3.3,1.9c-0.2,0.1-0.3,0.3-0.4,0.5c-0.1,0.2,0,0.4,0.1,0.6
					l0.6,1c0.2,0.4,0.7,0.5,1.1,0.3l3.3-1.9c0.2-0.1,0.3-0.3,0.4-0.5c0.1-0.2,0-0.4-0.1-0.6l-0.6-1l0,0c-0.1-0.2-0.3-0.3-0.5-0.4
					C72.1,47.9,72,47.9,72,47.9z"/>
			</g>
			<g>
				<path class="st0" d="M55.4,57.4l1.3,2.2c0.5,0.9,0.2,2-0.7,2.5l-14.1,8.1c-0.9,0.5-2,0.2-2.5-0.7l-1.3-2.2
					c-0.5-0.9-0.2-2,0.7-2.5l14.1-8.1C53.8,56.3,54.9,56.6,55.4,57.4z"/>
				<path class="st1" d="M41,71.6c-0.2,0-0.5,0-0.7-0.1c-0.7-0.2-1.3-0.7-1.7-1.3l-1.3-2.2c-0.4-0.7-0.5-1.4-0.3-2.2
					c0.2-0.7,0.7-1.3,1.3-1.7l14.1-8.1c0.7-0.4,1.4-0.5,2.2-0.3c0.7,0.2,1.3,0.7,1.7,1.3l1.3,2.2c0.8,1.4,0.3,3.1-1,3.9l-14.1,8.1
					C42,71.4,41.5,71.6,41,71.6z M53.8,57.5c-0.1,0-0.3,0-0.4,0.1l-14.1,8.1c-0.2,0.1-0.3,0.3-0.4,0.5s0,0.4,0.1,0.6l1.3,2.2
					c0.1,0.2,0.3,0.3,0.5,0.4c0.2,0.1,0.4,0,0.6-0.1l14.1-8.1c0.4-0.2,0.5-0.7,0.3-1.1L54.5,58c0,0,0,0,0,0
					c-0.1-0.2-0.3-0.3-0.5-0.4C54,57.6,53.9,57.5,53.8,57.5z"/>
			</g>
		</g>
	</g>
</g>
</svg>
