<?xml version="1.0" encoding="utf-8"?>
<!-- Generator: Adobe Illustrator 23.0.3, SVG Export Plug-In . SVG Version: 6.00 Build 0)  -->
<svg version="1.1" id="Layer_1" xmlns="http://www.w3.org/2000/svg" xmlns:xlink="http://www.w3.org/1999/xlink" x="0px" y="0px"
	 viewBox="0 0 90 90" style="enable-background:new 0 0 90 90;" xml:space="preserve">
<style type="text/css">
	.st0{fill-rule:evenodd;clip-rule:evenodd;fill:#FFFFFF;}
	.st1{fill:#FE2780;}
</style>
<title>ico-tile-demenageur</title>
<desc>Created with Sketch.</desc>
<g id="Nouvelle-Home-Stootie">
	<g id="Artboard" transform="translate(-33.000000, -22.000000)">
		<g id="Group-21" transform="translate(33.000000, 22.000000)">
			<g id="Rectangle">
				<rect x="13.2" y="41.5" class="st0" width="16.6" height="26.3"/>
				<path d="M29.8,68.9H13.2c-0.6,0-1-0.5-1-1V41.5c0-0.6,0.5-1,1-1h16.6c0.6,0,1,0.5,1,1v26.3C30.8,68.4,30.3,68.9,29.8,68.9z
					 M14.2,66.9h14.6V42.6H14.2V66.9z"/>
			</g>
			<g>
				<polygon class="st0" points="13.2,41.5 29.8,41.5 25.6,49.9 9,49.9 				"/>
				<path d="M25.6,50.9H9c-0.4,0-0.7-0.2-0.9-0.5c-0.2-0.3-0.2-0.7,0-1l4.2-8.3c0.2-0.3,0.5-0.6,0.9-0.6h16.6c0.4,0,0.7,0.2,0.9,0.5
					s0.2,0.7,0,1l-4.2,8.3C26.3,50.7,26,50.9,25.6,50.9z M10.6,48.8H25l3.1-6.3H13.8L10.6,48.8z"/>
			</g>
			<g>
				<rect x="29.8" y="41.5" class="st0" width="9.7" height="26.3"/>
				<path d="M39.4,68.9h-9.7c-0.6,0-1-0.5-1-1V41.5c0-0.6,0.5-1,1-1h9.7c0.6,0,1,0.5,1,1v26.3C40.5,68.4,40,68.9,39.4,68.9z
					 M30.8,66.9h7.7V42.6h-7.7V66.9z"/>
			</g>
			<g id="Line-Copy-3">
				<path class="st0" d="M20.1,70.7h54"/>
				<path class="st1" d="M74,71.7h-54c-0.6,0-1-0.5-1-1s0.5-1,1-1h54c0.6,0,1,0.5,1,1S74.6,71.7,74,71.7z"/>
			</g>
			<g>
				<polygon class="st0" points="39.4,41.5 29.8,41.5 35.3,49.9 45,49.9 				"/>
				<path d="M45,50.9h-9.7c-0.3,0-0.7-0.2-0.8-0.5l-5.5-8.3c-0.2-0.3-0.2-0.7,0-1s0.5-0.5,0.9-0.5h9.7c0.3,0,0.7,0.2,0.8,0.5
					l5.5,8.3c0.2,0.3,0.2,0.7,0,1C45.7,50.7,45.3,50.9,45,50.9z M35.8,48.8h7.3l-4.2-6.3h-7.3L35.8,48.8z"/>
			</g>
			<g id="Path">
				<polyline class="st0" points="79.6,54 49.7,54 49.7,18 79.6,18 				"/>
				<path class="st1" d="M79.6,55H49.7c-0.6,0-1-0.5-1-1V18c0-0.6,0.5-1,1-1h29.9c0.6,0,1,0.5,1,1s-0.5,1-1,1H50.7v34h28.8
					c0.6,0,1,0.5,1,1S80.1,55,79.6,55z"/>
			</g>
			<g>
				<path class="st0" d="M49.7,40.6h2.9c1.1,0,2,0.9,2,2V54h-4.9V40.6z"/>
				<path class="st1" d="M54.7,55h-4.9c-0.6,0-1-0.5-1-1V40.6c0-0.6,0.5-1,1-1h2.9c1.7,0,3,1.4,3,3V54C55.7,54.6,55.2,55,54.7,55z
					 M50.7,53h2.9V42.6c0-0.6-0.5-1-1-1h-1.9V53z"/>
			</g>
			<g id="Line-8">
				<rect x="49.7" y="48.1" class="st1" width="4.9" height="2"/>
			</g>
			<g>
				<path class="st0" d="M53.3,54.1h21.6v6.8H56c-1.5,0-2.7-1.2-2.7-2.7V54.1z"/>
				<path class="st1" d="M74.9,61.9H56c-2,0-3.7-1.7-3.7-3.7v-4.1c0-0.6,0.5-1,1-1h21.6c0.6,0,1,0.5,1,1v6.8
					C75.9,61.4,75.4,61.9,74.9,61.9z M54.3,55.1v3.1c0,0.9,0.8,1.7,1.7,1.7h17.8v-4.8H54.3z"/>
			</g>
			<g id="Line-9">
				<path class="st0" d="M71.1,60.9h8.6"/>
				<path class="st1" d="M79.7,61.9h-8.6c-0.6,0-1-0.5-1-1s0.5-1,1-1h8.6c0.6,0,1,0.5,1,1S80.2,61.9,79.7,61.9z"/>
			</g>
			<g id="Oval">
				<ellipse class="st0" cx="64.1" cy="60.9" rx="6.9" ry="6.9"/>
				<path class="st1" d="M64.1,68.9c-4.4,0-7.9-3.6-7.9-7.9c0-4.4,3.6-7.9,7.9-7.9s7.9,3.6,7.9,7.9C72.1,65.3,68.5,68.9,64.1,68.9z
					 M64.1,55c-3.3,0-5.9,2.7-5.9,5.9s2.6,5.9,5.9,5.9s5.9-2.7,5.9-5.9S67.4,55,64.1,55z"/>
			</g>
			<g>
				<ellipse class="st0" cx="64.1" cy="60.9" rx="2.8" ry="2.8"/>
				<path class="st1" d="M64.1,64.7c-2.1,0-3.8-1.7-3.8-3.8s1.7-3.8,3.8-3.8s3.8,1.7,3.8,3.8S66.2,64.7,64.1,64.7z M64.1,59.2
					c-1,0-1.8,0.8-1.8,1.8s0.8,1.8,1.8,1.8s1.8-0.8,1.8-1.8S65.1,59.2,64.1,59.2z"/>
			</g>
		</g>
	</g>
</g>
</svg>
