<?xml version="1.0" encoding="utf-8"?>
<!-- Generator: Adobe Illustrator 23.0.3, SVG Export Plug-In . SVG Version: 6.00 Build 0)  -->
<svg version="1.1" id="Layer_1" xmlns="http://www.w3.org/2000/svg" xmlns:xlink="http://www.w3.org/1999/xlink" x="0px" y="0px"
	 viewBox="0 0 90 90" style="enable-background:new 0 0 90 90;" xml:space="preserve">
<style type="text/css">
	.st0{fill-rule:evenodd;clip-rule:evenodd;fill:#FFFFFF;}
	.st1{fill:#FE2780;}
	.st2{fill:#FFFFFF;}
</style>
<title>ico-tile-electricien</title>
<desc>Created with Sketch.</desc>
<g id="Nouvelle-Home-Stootie">
	<g id="Artboard" transform="translate(-33.000000, -22.000000)">
		<g id="Group-26" transform="translate(33.000000, 22.000000)">
			<g id="Oval">
				<ellipse class="st0" cx="53.5" cy="39.4" rx="8.3" ry="8.2"/>
				<path d="M53.5,48.6c-5.1,0-9.3-4.1-9.3-9.2s4.2-9.2,9.3-9.2c5.1,0,9.3,4.1,9.3,9.2S58.7,48.6,53.5,48.6z M53.5,32.2
					c-4,0-7.3,3.2-7.3,7.2s3.3,7.2,7.3,7.2s7.3-3.2,7.3-7.2S57.5,32.2,53.5,32.2z"/>
			</g>
			<g id="Rectangle">
				<rect x="49.9" y="29.8" class="st0" width="7.3" height="3.3"/>
				<path d="M57.2,34.1h-7.3c-0.6,0-1-0.5-1-1v-3.3c0-0.6,0.5-1,1-1h7.3c0.6,0,1,0.5,1,1v3.3C58.2,33.7,57.7,34.1,57.2,34.1z
					 M50.9,32.1h5.3v-1.3h-5.3V32.1z"/>
			</g>
			<g id="Path">
				<path class="st0" d="M50.9,36.7c-0.9,0-1.7,0.7-1.7,1.6S50,40,50.9,40s1.7-0.7,1.7-1.6v-5.7"/>
				<path d="M50.9,40.7c-1.3,0-2.3-1-2.3-2.3c0-1.3,1-2.3,2.3-2.3c0.4,0,0.7,0.3,0.7,0.7s-0.3,0.7-0.7,0.7c-0.5,0-1,0.4-1,1
					c0,0.5,0.4,1,1,1s1-0.4,1-1v-5.7c0-0.4,0.3-0.7,0.7-0.7s0.7,0.3,0.7,0.7v5.7C53.2,39.6,52.2,40.7,50.9,40.7z"/>
			</g>
			<g id="Path-Copy">
				<path class="st0" d="M56.2,36.7c0.9,0,1.7,0.7,1.7,1.6S57.1,40,56.2,40s-1.7-0.7-1.7-1.6v-5.7"/>
				<path d="M56.2,40.7c-1.3,0-2.3-1-2.3-2.3v-5.7c0-0.4,0.3-0.7,0.7-0.7s0.7,0.3,0.7,0.7v5.7c0,0.5,0.4,1,1,1s1-0.4,1-1
					c0-0.5-0.4-1-1-1c-0.4,0-0.7-0.3-0.7-0.7s0.3-0.7,0.7-0.7c1.3,0,2.3,1,2.3,2.3C58.5,39.6,57.5,40.7,56.2,40.7z"/>
			</g>
			<g>
				<path class="st0" d="M52.5,22.6h2c1.5,0,2.6,1.2,2.6,2.6v4.6h-7.3v-4.6C49.9,23.8,51.1,22.6,52.5,22.6z"/>
				<path d="M57.2,30.8h-7.3c-0.6,0-1-0.5-1-1v-4.6c0-2,1.6-3.7,3.7-3.7h2c2,0,3.7,1.6,3.7,3.7v4.6C58.2,30.4,57.7,30.8,57.2,30.8z
					 M50.9,28.8h5.3v-3.6c0-0.9-0.7-1.6-1.6-1.6h-2c-0.9,0-1.6,0.7-1.6,1.6V28.8z"/>
			</g>
			<g id="Line-12-Copy">
				<path class="st0" d="M49.9,28.8l7.3-2"/>
				<rect x="49.7" y="27.2" transform="matrix(0.9651 -0.2619 0.2619 0.9651 -5.4256 14.9888)" width="7.6" height="1.3"/>
			</g>
			<g>
				<ellipse class="st0" cx="34.3" cy="50.6" rx="8.3" ry="8.2"/>
				<path class="st1" d="M34.3,59.8c-5.1,0-9.3-4.1-9.3-9.2s4.2-9.2,9.3-9.2s9.3,4.1,9.3,9.2S39.4,59.8,34.3,59.8z M34.3,43.3
					c-4,0-7.3,3.2-7.3,7.2c0,4,3.3,7.2,7.3,7.2s7.3-3.2,7.3-7.2C41.6,46.6,38.3,43.3,34.3,43.3z"/>
			</g>
			<g>
				<rect x="30.6" y="41" class="st0" width="7.3" height="3.3"/>
				<path class="st1" d="M37.9,45.3h-7.3c-0.6,0-1-0.5-1-1V41c0-0.6,0.5-1,1-1h7.3c0.6,0,1,0.5,1,1v3.3
					C38.9,44.9,38.5,45.3,37.9,45.3z M31.7,43.3h5.3V42h-5.3V43.3z"/>
			</g>
			<g>
				<path class="st0" d="M31.6,47.9c-0.9,0-1.7,0.7-1.7,1.6s0.7,1.6,1.7,1.6c0.9,0,1.7-0.7,1.7-1.6v-5.7"/>
				<path class="st1" d="M31.6,51.9c-1.3,0-2.3-1-2.3-2.3c0-1.3,1-2.3,2.3-2.3c0.4,0,0.7,0.3,0.7,0.7s-0.3,0.7-0.7,0.7
					c-0.5,0-1,0.4-1,1c0,0.5,0.4,1,1,1s1-0.4,1-1v-5.7c0-0.4,0.3-0.7,0.7-0.7s0.7,0.3,0.7,0.7v5.7C34,50.8,32.9,51.9,31.6,51.9z"/>
			</g>
			<g>
				<path class="st0" d="M36.9,47.9c0.9,0,1.7,0.7,1.7,1.6s-0.7,1.6-1.7,1.6s-1.7-0.7-1.7-1.6v-5.7"/>
				<path class="st1" d="M36.9,51.9c-1.3,0-2.3-1-2.3-2.3v-5.7c0-0.4,0.3-0.7,0.7-0.7s0.7,0.3,0.7,0.7v5.7c0,0.5,0.4,1,1,1
					s1-0.4,1-1c0-0.5-0.4-1-1-1c-0.4,0-0.7-0.3-0.7-0.7s0.3-0.7,0.7-0.7c1.3,0,2.3,1,2.3,2.3C39.3,50.8,38.2,51.9,36.9,51.9z"/>
			</g>
			<g>
				<path class="st0" d="M33.3,33.8h2c1.5,0,2.6,1.2,2.6,2.6V41h-7.3v-4.6C30.6,35,31.8,33.8,33.3,33.8z"/>
				<path class="st1" d="M37.9,42h-7.3c-0.6,0-1-0.5-1-1v-4.6c0-2,1.6-3.7,3.7-3.7h2c2,0,3.7,1.6,3.7,3.7V41
					C38.9,41.6,38.5,42,37.9,42z M31.7,40h5.3v-3.6c0-0.9-0.7-1.6-1.6-1.6h-2c-0.9,0-1.6,0.7-1.6,1.6V40z"/>
			</g>
			<g id="Line-12">
				<path class="st0" d="M30.6,37.4l6.3-1.6"/>
				
					<rect x="30.5" y="35.9" transform="matrix(0.9676 -0.2524 0.2524 0.9676 -8.1365 9.7129)" class="st1" width="6.5" height="1.4"/>
			</g>
			<g>
				<path class="st0" d="M30.6,40l7.3-2"/>
				
					<rect x="30.5" y="38.4" transform="matrix(0.9653 -0.2612 0.2612 0.9653 -9.0077 10.3126)" class="st1" width="7.6" height="1.3"/>
			</g>
			<g id="Line-13">
				<path class="st0" d="M34.3,33.8V16.3"/>
				<rect x="33.3" y="16.3" class="st1" width="2" height="17.4"/>
			</g>
			<g id="Rectangle-Copy-20">
				<rect x="43.2" y="64.1" class="st0" width="20.6" height="10.5"/>
				<path class="st1" d="M63.8,75.6H43.2c-0.6,0-1-0.5-1-1V64.1c0-0.6,0.5-1,1-1h20.6c0.6,0,1,0.5,1,1v10.5
					C64.8,75.1,64.4,75.6,63.8,75.6z M44.3,73.6h18.5v-8.5H44.3V73.6z"/>
			</g>
			<g id="Rectangle-Copy-21">
				<rect x="32.6" y="64.1" class="st0" width="10.6" height="10.5"/>
				<path class="st1" d="M43.2,75.6H32.6c-0.6,0-1-0.5-1-1V64.1c0-0.6,0.5-1,1-1h10.6c0.6,0,1,0.5,1,1v10.5
					C44.3,75.1,43.8,75.6,43.2,75.6z M33.6,73.6h8.6v-8.5h-8.6V73.6z"/>
			</g>
			<g id="Rectangle-Copy-22">
				<rect x="32.6" y="64.1" class="st0" width="10.6" height="10.5"/>
				<path class="st1" d="M43.2,75.6H32.6c-0.6,0-1-0.5-1-1V64.1c0-0.6,0.5-1,1-1h10.6c0.6,0,1,0.5,1,1v10.5
					C44.3,75.1,43.8,75.6,43.2,75.6z M33.6,73.6h8.6v-8.5h-8.6V73.6z"/>
			</g>
			<g>
				<path class="st0" d="M49.9,26.2l6.3-1.6"/>
				<rect x="49.8" y="24.7" transform="matrix(0.9674 -0.2532 0.2532 0.9674 -4.6982 14.2502)" width="6.5" height="1.3"/>
			</g>
			<g>
				<path class="st0" d="M53.5,22.6v-6.2"/>
				<rect x="52.5" y="16.3" width="2" height="6.2"/>
			</g>
			<g>
				<ellipse class="st0" cx="48.5" cy="69.3" rx="3.3" ry="3.3"/>
				<path class="st1" d="M48.5,73.3c-2.2,0-4-1.8-4-4c0-2.2,1.8-4,4-4c2.2,0,4,1.8,4,4C52.5,71.5,50.7,73.3,48.5,73.3z M48.5,66.7
					c-1.5,0-2.6,1.2-2.6,2.6c0,1.4,1.2,2.6,2.6,2.6s2.6-1.2,2.6-2.6C51.2,67.9,50,66.7,48.5,66.7z"/>
			</g>
			<g>
				<ellipse class="st2" cx="47.2" cy="69.3" rx="1" ry="1"/>
				<path class="st1" d="M47.2,71.1c-1,0-1.8-0.8-1.8-1.8s0.8-1.8,1.8-1.8s1.8,0.8,1.8,1.8S48.2,71.1,47.2,71.1z M47.2,69.1
					c-0.1,0-0.2,0.1-0.2,0.2c0,0.2,0.4,0.2,0.4,0C47.4,69.2,47.3,69.1,47.2,69.1z"/>
			</g>
			<g id="Oval-Copy-3">
				<ellipse class="st2" cx="49.9" cy="69.3" rx="1" ry="1"/>
				<path class="st1" d="M49.9,71.1c-1,0-1.8-0.8-1.8-1.8s0.8-1.8,1.8-1.8s1.8,0.8,1.8,1.8S50.9,71.1,49.9,71.1z M49.9,69.1
					c-0.1,0-0.2,0.1-0.2,0.2c0,0.2,0.4,0.2,0.4,0C50.1,69.2,50,69.1,49.9,69.1z"/>
			</g>
			<g>
				<ellipse class="st0" cx="58" cy="69.3" rx="3.3" ry="3.3"/>
				<path class="st1" d="M58,73.3c-2.2,0-4-1.8-4-4c0-2.2,1.8-4,4-4c2.2,0,4,1.8,4,4C62,71.5,60.2,73.3,58,73.3z M58,66.7
					c-1.5,0-2.6,1.2-2.6,2.6c0,1.4,1.2,2.6,2.6,2.6s2.6-1.2,2.6-2.6C60.6,67.9,59.5,66.7,58,66.7z"/>
			</g>
			<g>
				<ellipse class="st2" cx="56.7" cy="69.3" rx="1" ry="1"/>
				<path class="st1" d="M56.7,71.1c-1,0-1.8-0.8-1.8-1.8s0.8-1.8,1.8-1.8s1.8,0.8,1.8,1.8S57.7,71.1,56.7,71.1z M56.7,69.1
					c-0.1,0-0.2,0.1-0.2,0.2c0,0.2,0.4,0.2,0.4,0C56.9,69.2,56.8,69.1,56.7,69.1z"/>
			</g>
			<g>
				<ellipse class="st2" cx="59.3" cy="69.3" rx="1" ry="1"/>
				<path class="st1" d="M59.3,71.1c-1,0-1.8-0.8-1.8-1.8s0.8-1.8,1.8-1.8s1.8,0.8,1.8,1.8S60.3,71.1,59.3,71.1z M59.3,69.1
					c-0.1,0-0.2,0.1-0.2,0.2c0,0.2,0.4,0.2,0.4,0C59.5,69.2,59.4,69.1,59.3,69.1z"/>
			</g>
			<g>
				<rect x="36.6" y="66.8" class="st0" width="2.7" height="5.1"/>
				<path class="st1" d="M39.3,72.6h-2.7c-0.4,0-0.7-0.3-0.7-0.7v-5.1c0-0.4,0.3-0.7,0.7-0.7h2.7c0.4,0,0.7,0.3,0.7,0.7V72
					C39.9,72.3,39.6,72.6,39.3,72.6z M37.3,71.3h1.3v-3.8h-1.3V71.3z"/>
			</g>
			<g id="Line-11">
				<path class="st0" d="M36.6,69.3h2.7"/>
				<path class="st1" d="M39.3,70h-2.7c-0.4,0-0.7-0.3-0.7-0.7s0.3-0.7,0.7-0.7h2.7c0.4,0,0.7,0.3,0.7,0.7S39.6,70,39.3,70z"/>
			</g>
		</g>
	</g>
</g>
</svg>
