<svg width="134" height="134" viewBox="0 0 134 134" fill="none" xmlns="http://www.w3.org/2000/svg">
<g filter="url(#filter0_d)">
<path fill-rule="evenodd" clip-rule="evenodd" d="M67 113C93.5097 113 115 91.5097 115 65C115 38.4903 93.5097 17 67 17C40.4903 17 19 38.4903 19 65C19 91.5097 40.4903 113 67 113Z" fill="white"/>
<path d="M114.5 65C114.5 91.2335 93.2335 112.5 67 112.5C40.7665 112.5 19.5 91.2335 19.5 65C19.5 38.7665 40.7665 17.5 67 17.5C93.2335 17.5 114.5 38.7665 114.5 65Z" stroke="#EFF0F4"/>
</g>
<rect x="51" y="47.2183" width="31" height="38" rx="3.2" fill="white" stroke="black" stroke-width="2"/>
<path fill-rule="evenodd" clip-rule="evenodd" d="M56.5625 53.9473C56.5625 53.2914 57.0942 52.7598 57.75 52.7598H76.0417C76.6975 52.7598 77.2292 53.2914 77.2292 53.9473C77.2292 54.6031 76.6975 55.1348 76.0417 55.1348H57.75C57.0942 55.1348 56.5625 54.6031 56.5625 53.9473ZM56.5625 59.4889C56.5625 58.8331 57.0942 58.3014 57.75 58.3014H68.8878C69.5437 58.3014 70.0753 58.8331 70.0753 59.4889C70.0753 60.1448 69.5437 60.6764 68.8878 60.6764H57.75C57.0942 60.6764 56.5625 60.1448 56.5625 59.4889ZM57.75 74.9264C57.0942 74.9264 56.5625 75.4581 56.5625 76.1139C56.5625 76.7698 57.0942 77.3014 57.75 77.3014H68.8878C69.5437 77.3014 70.0753 76.7698 70.0753 76.1139C70.0753 75.4581 69.5437 74.9264 68.8878 74.9264H57.75ZM56.5625 65.0306C56.5625 64.3748 57.0942 63.8431 57.75 63.8431H72.8622C73.518 63.8431 74.0497 64.3748 74.0497 65.0306C74.0497 65.6864 73.518 66.2181 72.8622 66.2181H57.75C57.0942 66.2181 56.5625 65.6864 56.5625 65.0306ZM57.75 69.3848C57.0942 69.3848 56.5625 69.9164 56.5625 70.5723C56.5625 71.2281 57.0942 71.7598 57.75 71.7598H72.8622C73.518 71.7598 74.0497 71.2281 74.0497 70.5723C74.0497 69.9164 73.518 69.3848 72.8622 69.3848H57.75Z" fill="black"/>
<path fill-rule="evenodd" clip-rule="evenodd" d="M96.1914 50.7281L94.7564 49.2922C93.7772 48.3131 92.1829 48.3131 91.2029 49.2922L71.744 68.7507C71.4946 69.0001 67.977 75.1155 69.1731 76.3108C70.3675 77.5061 76.4831 73.9894 76.7325 73.74L96.1914 54.2815C97.1706 53.3015 97.1706 51.7072 96.1914 50.7281ZM93.3579 50.6913L94.7938 52.1272C95.0003 52.3355 95.0003 52.6741 94.7938 52.8815L93.4471 54.2281L91.2578 52.038L92.6045 50.6922C92.811 50.4839 93.1496 50.4839 93.3579 50.6913ZM74.007 73.0566C74.6492 72.7513 75.1707 72.4765 75.3536 72.3225L75.9049 71.7695L73.7138 69.5793L73.1451 70.149C72.9981 70.3257 72.7285 70.8394 72.4258 71.4755L74.007 73.0566Z" fill="black"/>
<path d="M75.2898 68.1167L77.2892 70.2321L91.9436 55.7312L89.8334 53.4994L75.2898 68.1167Z" fill="white"/>
<path d="M73.71 69.5671C73.71 69.5671 73.0987 70.1657 73.0154 70.2964C72.9321 70.4271 72.3555 71.4542 72.3555 71.4542L74.0043 73.0589L75.3309 72.3751C75.3309 72.3751 75.899 71.8159 75.899 71.7847C75.899 71.7535 73.71 69.5671 73.71 69.5671Z" fill="white"/>
<path d="M75.0636 68.1275L77.2305 70.5259L92.1461 55.706L89.6091 53.1998L75.0636 68.1275Z" fill="url(#paint0_linear)"/>
<defs>
<filter id="filter0_d" x="0" y="0" width="134" height="134" filterUnits="userSpaceOnUse" color-interpolation-filters="sRGB">
<feFlood flood-opacity="0" result="BackgroundImageFix"/>
<feColorMatrix in="SourceAlpha" type="matrix" values="0 0 0 0 0 0 0 0 0 0 0 0 0 0 0 0 0 0 127 0"/>
<feOffset dy="2"/>
<feGaussianBlur stdDeviation="9.5"/>
<feColorMatrix type="matrix" values="0 0 0 0 0 0 0 0 0 0 0 0 0 0 0 0 0 0 0.0791357 0"/>
<feBlend mode="normal" in2="BackgroundImageFix" result="effect1_dropShadow"/>
<feBlend mode="normal" in="SourceGraphic" in2="effect1_dropShadow" result="shape"/>
</filter>
<linearGradient id="paint0_linear" x1="86.8702" y1="67.5475" x2="88.7781" y2="56.7274" gradientUnits="userSpaceOnUse">
<stop stop-color="#FFFF0F"/>
<stop offset="1" stop-color="#FF2780"/>
</linearGradient>
</defs>
</svg>
