<?xml version="1.0" encoding="utf-8"?>
<!-- Generator: Adobe Illustrator 23.0.3, SVG Export Plug-In . SVG Version: 6.00 Build 0)  -->
<svg version="1.1" id="Layer_1" xmlns="http://www.w3.org/2000/svg" xmlns:xlink="http://www.w3.org/1999/xlink" x="0px" y="0px"
	 viewBox="0 0 90 90" style="enable-background:new 0 0 90 90;" xml:space="preserve">
<style type="text/css">
	.st0{fill-rule:evenodd;clip-rule:evenodd;fill:#FFFFFF;}
	.st1{fill:#FE2780;}
</style>
<title>ico-tile-peinture</title>
<desc>Created with Sketch.</desc>
<g id="Nouvelle-Home-Stootie">
	<g id="Artboard" transform="translate(-33.000000, -22.000000)">
		<g id="Group-24" transform="translate(33.000000, 22.000000)">
			<g id="Stroke-3">
				<polygon class="st0" points="34.6,68.7 39.1,68.7 39.1,47 34.6,47 				"/>
				<path class="st1" d="M39.1,69.7h-4.5c-0.6,0-1-0.5-1-1V47c0-0.6,0.5-1,1-1h4.5c0.6,0,1,0.5,1,1v21.7
					C40.1,69.3,39.7,69.7,39.1,69.7z M35.6,67.7h2.5V48.1h-2.5V67.7z"/>
			</g>
			<g id="Stroke-5">
				<path class="st0" d="M49.7,26.6h4.7c0.6,0,1.2,0.5,1.2,1.2v9.1c0,0.6-0.5,1.3-1.1,1.4l-15.9,4c-0.6,0.2-1.1,0.8-1.1,1.4v3.4"/>
				<path class="st1" d="M38.4,47.1h-2v-3.4c0-1.1,0.8-2.2,1.9-2.4l15.9-4c0.2,0,0.4-0.3,0.4-0.5v-9.1c0-0.1-0.1-0.2-0.2-0.2h-4.7
					v-2h4.7c1.2,0,2.2,1,2.2,2.2v9.1c0,1.1-0.8,2.2-1.9,2.4l-15.9,4c-0.2,0-0.4,0.3-0.4,0.5V47.1z"/>
			</g>
			<g id="Stroke-1">
				<path class="st0" d="M50.8,28.2c0,1.6-1.3,2.9-2.9,2.9h-26c-1.6,0-2.9-1.3-2.9-2.9v-3.3c0-1.6,1.3-2.9,2.9-2.9h26
					c1.6,0,2.9,1.3,2.9,2.9V28.2z"/>
				<path class="st1" d="M47.9,32.1h-26c-2.2,0-3.9-1.8-3.9-3.9v-3.3c0-2.2,1.8-3.9,3.9-3.9h26c2.2,0,3.9,1.8,3.9,3.9v3.3
					C51.9,30.4,50.1,32.1,47.9,32.1z M21.9,23c-1,0-1.9,0.9-1.9,1.9v3.3c0,1,0.9,1.9,1.9,1.9h26c1,0,1.9-0.9,1.9-1.9v-3.3
					c0-1-0.9-1.9-1.9-1.9H21.9z"/>
			</g>
			<g id="Stroke-6">
				<polygon class="st0" points="50.5,69 67.6,69 67.6,46.8 50.5,46.8 				"/>
				<path d="M67.6,70H50.5c-0.6,0-1-0.5-1-1V46.8c0-0.6,0.5-1,1-1h17.1c0.6,0,1,0.5,1,1V69C68.7,69.5,68.2,70,67.6,70z M51.5,68
					h15.1V47.8H51.5V68z"/>
			</g>
			<g id="Stroke-8">
				<path class="st0" d="M55.6,47v1.8c0,1.6,1,2.9,2.3,2.9c1.3,0,2.3,0.9,2.3,2c0,1.1,1,2,2.3,2c1.3,0,2.3-1.3,2.3-2.9V47H55.6z"/>
				<path d="M62.6,56.8c-1.8,0-3.3-1.4-3.3-3.1c0-0.6-0.6-1-1.3-1c-1.8,0-3.3-1.8-3.3-3.9V47c0-0.6,0.5-1,1-1H65c0.6,0,1,0.5,1,1
					v5.8C66,55.1,64.5,56.8,62.6,56.8z M56.7,48.1v0.8c0,1,0.6,1.9,1.3,1.9c1.8,0,3.3,1.4,3.3,3.1c0,0.6,0.6,1,1.3,1
					c0.7,0,1.3-0.9,1.3-1.9v-4.8H56.7z"/>
			</g>
			<g id="Stroke-7">
				<path class="st0" d="M47.1,46.8h23.3"/>
				<path d="M70.4,47.8H47.1c-0.6,0-1-0.5-1-1s0.5-1,1-1h23.3c0.6,0,1,0.5,1,1S71,47.8,70.4,47.8z"/>
			</g>
		</g>
	</g>
</g>
</svg>
