<?xml version="1.0" encoding="utf-8"?>
<!-- Generator: Adobe Illustrator 23.0.3, SVG Export Plug-In . SVG Version: 6.00 Build 0)  -->
<svg version="1.1" id="Layer_1" xmlns="http://www.w3.org/2000/svg" xmlns:xlink="http://www.w3.org/1999/xlink" x="0px" y="0px"
	 viewBox="0 0 90 90" style="enable-background:new 0 0 90 90;" xml:space="preserve">
<style type="text/css">
	.st0{fill-rule:evenodd;clip-rule:evenodd;fill:#FFFFFF;}
	.st1{fill:#FE2780;}
</style>
<title>ico-tile-jardinier</title>
<desc>Created with Sketch.</desc>
<g id="Nouvelle-Home-Stootie">
	<g id="Artboard" transform="translate(-33.000000, -22.000000)">
		<g id="Group-23" transform="translate(33.000000, 22.000000)">
			<g id="Path">
				<path class="st0" d="M19,46.5c0-7.4,3.1-24.5,7-24.5c3.9,0,7,17.1,7,24.5c0,7.4-3.1,9.1-7,9.1C22.1,55.6,19,54,19,46.5z"/>
				<path d="M26,56.6c-5.5,0-8-3.2-8-10.1c0-5.2,2.5-25.5,8-25.5c5.5,0,8,20.3,8,25.5C34,53.4,31.4,56.6,26,56.6z M26,23
					c-2.3,0-6,14.3-6,23.5c0,7.1,2.9,8,6,8s6-1,6-8C31.9,37.3,28.3,23,26,23z"/>
			</g>
			<g id="Line">
				<path class="st0" d="M26.3,36v31.3"/>
				<path d="M26.3,68c-0.4,0-0.7-0.3-0.7-0.7V36c0-0.4,0.3-0.7,0.7-0.7s0.7,0.3,0.7,0.7v31.3C26.9,67.7,26.6,68,26.3,68z"/>
			</g>
			<g id="Line-8">
				<path class="st0" d="M26.1,51.2l-4.7-4.4"/>
				<path d="M26.1,51.9c-0.2,0-0.3-0.1-0.5-0.2L21,47.3c-0.3-0.3-0.3-0.7,0-1c0.3-0.3,0.7-0.3,1,0l4.7,4.4c0.3,0.3,0.3,0.7,0,1
					C26.5,51.8,26.3,51.9,26.1,51.9z"/>
			</g>
			<g id="Line-7">
				<path class="st0" d="M26.3,44.1l2.9-3.6"/>
				<path d="M26.3,44.7c-0.1,0-0.3,0-0.4-0.1c-0.3-0.2-0.3-0.7-0.1-0.9l2.9-3.6c0.2-0.3,0.7-0.3,0.9-0.1c0.3,0.2,0.3,0.7,0.1,0.9
					l-2.9,3.6C26.7,44.6,26.5,44.7,26.3,44.7z"/>
			</g>
			<g id="Rectangle">
				<polygon class="st0" points="39.2,46.2 42.7,39.7 46.2,46.2 46.2,67.5 39.2,67.5 				"/>
				<path class="st1" d="M46.2,68.6h-7c-0.6,0-1-0.5-1-1V46.2c0-0.2,0-0.3,0.1-0.5l3.5-6.6c0.4-0.7,1.4-0.7,1.8,0l3.5,6.6
					c0.1,0.1,0.1,0.3,0.1,0.5v21.3C47.2,68.1,46.8,68.6,46.2,68.6z M40.3,66.5h5V46.5l-2.5-4.7l-2.5,4.7V66.5z"/>
			</g>
			<g id="Rectangle-Copy">
				<polygon class="st0" points="50.7,46.2 54.2,39.7 57.7,46.2 57.7,67.5 50.7,67.5 				"/>
				<path class="st1" d="M57.7,68.6h-7c-0.6,0-1-0.5-1-1V46.2c0-0.2,0-0.3,0.1-0.5l3.5-6.6c0.4-0.7,1.4-0.7,1.8,0l3.5,6.6
					c0.1,0.1,0.1,0.3,0.1,0.5v21.3C58.7,68.1,58.3,68.6,57.7,68.6z M51.8,66.5h5V46.5l-2.5-4.7l-2.5,4.7V66.5z"/>
			</g>
			<g id="Rectangle-Copy-2">
				<polygon class="st0" points="61.7,46.2 65.2,39.7 68.7,46.2 68.7,67.5 61.7,67.5 				"/>
				<path class="st1" d="M68.7,68.6h-7c-0.6,0-1-0.5-1-1V46.2c0-0.2,0-0.3,0.1-0.5l3.5-6.6c0.4-0.7,1.4-0.7,1.8,0l3.5,6.6
					c0.1,0.1,0.1,0.3,0.1,0.5v21.3C69.7,68.1,69.2,68.6,68.7,68.6z M62.7,66.5h5V46.5l-2.5-4.7l-2.5,4.7V66.5z"/>
			</g>
			<g>
				<rect x="36.5" y="49" class="st0" width="34.9" height="5.8"/>
				<path class="st1" d="M71.4,55.9H36.5c-0.6,0-1-0.5-1-1V49c0-0.6,0.5-1,1-1h34.9c0.6,0,1,0.5,1,1v5.8
					C72.4,55.4,72,55.9,71.4,55.9z M37.5,53.9h32.9V50H37.5V53.9z"/>
			</g>
			<g id="Rectangle-Copy-3">
				<rect x="36.5" y="58.5" class="st0" width="34.9" height="5.8"/>
				<path class="st1" d="M71.4,65.3H36.5c-0.6,0-1-0.5-1-1v-5.8c0-0.6,0.5-1,1-1h34.9c0.6,0,1,0.5,1,1v5.8
					C72.4,64.9,72,65.3,71.4,65.3z M37.5,63.3h32.9v-3.8H37.5V63.3z"/>
			</g>
		</g>
	</g>
</g>
</svg>
