<?xml version="1.0" encoding="utf-8"?>
<!-- Generator: Adobe Illustrator 23.0.3, SVG Export Plug-In . SVG Version: 6.00 Build 0)  -->
<svg version="1.1" id="Layer_1" xmlns="http://www.w3.org/2000/svg" xmlns:xlink="http://www.w3.org/1999/xlink" x="0px" y="0px"
	 viewBox="0 0 90 90" style="enable-background:new 0 0 90 90;" xml:space="preserve">
<style type="text/css">
	.st0{fill-rule:evenodd;clip-rule:evenodd;fill:#FFFFFF;}
	.st1{fill:#FE2780;}
</style>
<title>ico-tile-plombier</title>
<desc>Created with Sketch.</desc>
<g id="Nouvelle-Home-Stootie">
	<g id="Artboard" transform="translate(-33.000000, -22.000000)">
		<g id="Group-27" transform="translate(33.000000, 22.000000)">
			<g id="Rectangle">
				<rect x="26" y="17" class="st0" width="8" height="57"/>
				<path class="st1" d="M34,75h-8c-0.6,0-1-0.5-1-1V17c0-0.6,0.5-1,1-1h8c0.6,0,1,0.5,1,1v57C35,74.6,34.6,75,34,75z M27,73h6V18
					h-6V73z"/>
			</g>
			<g>
				<path class="st0" d="M25.4,50h8.2c0.8,0,1.4,0.6,1.4,1.4v3.2c0,0.8-0.6,1.4-1.4,1.4h-8.2c-0.8,0-1.4-0.6-1.4-1.4v-3.2
					C24,50.6,24.6,50,25.4,50z"/>
				<path class="st1" d="M33.6,57h-8.2c-1.3,0-2.4-1.1-2.4-2.4v-3.2c0-1.3,1.1-2.4,2.4-2.4h8.2c1.3,0,2.4,1.1,2.4,2.4v3.2
					C36,55.9,34.9,57,33.6,57z M25.4,51c-0.2,0-0.4,0.2-0.4,0.4v3.2c0,0.2,0.2,0.4,0.4,0.4h8.2c0.2,0,0.4-0.2,0.4-0.4v-3.2
					c0-0.2-0.2-0.4-0.4-0.4H25.4z"/>
			</g>
			<g id="Oval">
				<ellipse class="st0" cx="34" cy="29.5" rx="4" ry="4.5"/>
				<path class="st1" d="M34,35c-2.8,0-5-2.5-5-5.5s2.2-5.5,5-5.5s5,2.5,5,5.5S36.8,35,34,35z M34,26c-1.6,0-3,1.6-3,3.5
					s1.3,3.5,3,3.5s3-1.6,3-3.5S35.6,26,34,26z"/>
			</g>
			<g id="Line-5">
				<path class="st0" d="M36.7,26.6l-5.4,5.5"/>
				
					<rect x="30.2" y="28.7" transform="matrix(0.6976 -0.7165 0.7165 0.6976 -10.7508 33.2609)" class="st1" width="7.7" height="1.3"/>
			</g>
			<g>
				<path class="st0" d="M36.7,32.1l-5.4-5.5"/>
				
					<rect x="33.4" y="25.5" transform="matrix(0.7165 -0.6976 0.6976 0.7165 -10.8386 32.0661)" class="st1" width="1.3" height="7.7"/>
			</g>
			<g id="Rectangle-Copy-10">
				<path class="st0" d="M25.4,40h8.2c0.8,0,1.4,0.6,1.4,1.4v3.2c0,0.8-0.6,1.4-1.4,1.4h-8.2c-0.8,0-1.4-0.6-1.4-1.4v-3.2
					C24,40.6,24.6,40,25.4,40z"/>
				<path class="st1" d="M33.6,47h-8.2c-1.3,0-2.4-1.1-2.4-2.4v-3.2c0-1.3,1.1-2.4,2.4-2.4h8.2c1.3,0,2.4,1.1,2.4,2.4v3.2
					C36,45.9,34.9,47,33.6,47z M25.4,41c-0.2,0-0.4,0.2-0.4,0.4v3.2c0,0.2,0.2,0.4,0.4,0.4h8.2c0.2,0,0.4-0.2,0.4-0.4v-3.2
					c0-0.2-0.2-0.4-0.4-0.4H25.4z"/>
			</g>
			<g id="Path">
				<path class="st0" d="M66,39.7h-5c-4,0-7.3,3.2-7.3,7.3v27H45V47c0-8.8,7.2-16,16-16h5V39.7L66,39.7z"/>
				<path d="M53.7,75H45c-0.6,0-1-0.5-1-1V47c0-9.4,7.6-17,17-17h5c0.6,0,1,0.5,1,1v8.7c0,0.6-0.5,1-1,1h-5c-3.5,0-6.3,2.8-6.3,6.2
					v27C54.8,74.6,54.3,75,53.7,75z M46,73h6.7V47c0-4.6,3.7-8.3,8.3-8.3h4V32h-4c-8.3,0-15,6.7-15,15V73z"/>
			</g>
		</g>
	</g>
</g>
</svg>
