<?xml version="1.0" encoding="utf-8"?>
<!-- Generator: Adobe Illustrator 23.0.3, SVG Export Plug-In . SVG Version: 6.00 Build 0)  -->
<svg version="1.1" id="Layer_1" xmlns="http://www.w3.org/2000/svg" xmlns:xlink="http://www.w3.org/1999/xlink" x="0px" y="0px"
	 viewBox="0 0 90 90" style="enable-background:new 0 0 90 90;" xml:space="preserve">
<style type="text/css">
	.st0{fill-rule:evenodd;clip-rule:evenodd;fill:#FFFFFF;}
	.st1{fill:#FE2780;}
</style>
<title>ico-tile-bricoleur</title>
<desc>Created with Sketch.</desc>
<g id="Nouvelle-Home-Stootie">
	<g id="Artboard" transform="translate(-33.000000, -22.000000)">
		<g id="Group-22" transform="translate(33.000000, 22.000000)">
			<g id="Rectangle">
				<path class="st0" d="M44.1,25.7L44.1,25.7c1,0,1.8,0.8,1.8,1.8v23.6c0,1-0.8,1.8-1.8,1.8h0c-1,0-1.8-0.8-1.8-1.8V27.5
					C42.3,26.5,43.1,25.7,44.1,25.7z"/>
				<path class="st1" d="M44.1,53.9c-1.6,0-2.8-1.3-2.8-2.8V27.5c0-1.6,1.3-2.8,2.8-2.8c1.6,0,2.8,1.3,2.8,2.8v23.6
					C46.9,52.6,45.6,53.9,44.1,53.9z M44.1,26.7c-0.4,0-0.8,0.3-0.8,0.8v23.6c0,0.4,0.3,0.8,0.8,0.8s0.8-0.3,0.8-0.8V27.5
					C44.8,27.1,44.5,26.7,44.1,26.7z"/>
			</g>
			<g>
				<path class="st0" d="M43.4,22.5h1.3c1,0,1.8,0.8,1.8,1.8v4c0,1-0.8,1.8-1.8,1.8h-1.3c-1,0-1.8-0.8-1.8-1.8v-4
					C41.6,23.3,42.4,22.5,43.4,22.5z"/>
				<path class="st1" d="M44.7,31.2h-1.3c-1.6,0-2.9-1.3-2.9-2.9v-4c0-1.6,1.3-2.9,2.9-2.9h1.3c1.6,0,2.9,1.3,2.9,2.9v4
					C47.6,29.9,46.3,31.2,44.7,31.2z M43.4,23.5c-0.5,0-0.8,0.4-0.8,0.8v4c0,0.5,0.4,0.8,0.8,0.8h1.3c0.5,0,0.8-0.4,0.8-0.8v-4
					c0-0.5-0.4-0.8-0.8-0.8H43.4z"/>
			</g>
			<g>
				<path class="st0" d="M42.7,43.7h2.7c1,0,1.8,0.8,1.8,1.8v16.9c0,1-0.8,1.8-1.8,1.8h-2.7c-1,0-1.8-0.8-1.8-1.8V45.5
					C40.9,44.5,41.7,43.7,42.7,43.7z"/>
				<path d="M45.4,65.3h-2.7c-1.6,0-2.9-1.3-2.9-2.9V45.5c0-1.6,1.3-2.9,2.9-2.9h2.7c1.6,0,2.9,1.3,2.9,2.9v16.9
					C48.3,64,47,65.3,45.4,65.3z M42.7,44.7c-0.5,0-0.8,0.4-0.8,0.8v16.9c0,0.5,0.4,0.8,0.8,0.8h2.7c0.5,0,0.8-0.4,0.8-0.8V45.5
					c0-0.5-0.4-0.8-0.8-0.8H42.7z"/>
			</g>
			<g id="Path">
				<path class="st0" d="M34.3,38.5v21.8c0,1.7-1.4,3-3,3s-3-1.4-3-3V39.1c-1.7-0.7-3.1-2.2-3.7-4.2c-0.4-1.6-0.3-3.5,0.2-5.3
					l1.7-0.5l1.4,5.2l3.4,0.9l2.5-2.5l-1.4-5.2L34,27c1.4,1.3,2.4,2.9,2.9,4.5C37.6,34.3,36.5,37,34.3,38.5L34.3,38.5z"/>
				<path class="st1" d="M31.2,64.4c-2.2,0-4.1-1.8-4.1-4.1V39.7c-1.8-1-3.1-2.6-3.6-4.6c-0.5-1.7-0.4-3.9,0.2-5.9
					c0.1-0.3,0.4-0.6,0.7-0.7l1.7-0.5c0.5-0.1,1.1,0.2,1.3,0.7l1.2,4.6l2.2,0.6l1.6-1.6l-1.2-4.6c-0.1-0.3,0-0.5,0.1-0.8
					s0.4-0.4,0.6-0.5l1.7-0.5c0.3-0.1,0.7,0,1,0.2c1.5,1.4,2.7,3.3,3.2,5c0.8,2.9-0.3,5.9-2.6,7.7v21.3
					C35.3,62.6,33.5,64.4,31.2,64.4z M25.6,30.4c-0.4,1.5-0.4,3-0.1,4.2c0.4,1.6,1.6,2.9,3.1,3.5c0.4,0.2,0.6,0.5,0.6,0.9v21.3
					c0,1.1,0.9,2,2,2s2-0.9,2-2V38.5c0-0.3,0.2-0.7,0.5-0.9c1.9-1.3,2.8-3.6,2.2-5.8c-0.3-1.2-1.1-2.5-2.2-3.6l-0.1,0l1.1,4.2
					c0.1,0.4,0,0.7-0.3,1L32,35.9c-0.3,0.3-0.6,0.4-1,0.3l-3.4-0.9c-0.4-0.1-0.6-0.4-0.7-0.7l-1.1-4.2L25.6,30.4z"/>
			</g>
			<g id="Fill-1">
				<path class="st0" d="M24.3,71.4c0-7.8,6.4-14.2,14.3-14.2c-7.9,0-14.3-6.4-14.3-14.2c0,7.8-6.4,14.2-14.3,14.2
					C17.9,57.2,24.3,63.6,24.3,71.4z"/>
				<path d="M24.3,72.5c-0.6,0-1-0.5-1-1c0-7.3-5.9-13.2-13.2-13.2c-0.6,0-1-0.5-1-1s0.5-1,1-1c7.3,0,13.2-5.9,13.2-13.2
					c0-0.6,0.5-1,1-1s1,0.5,1,1c0,7.3,5.9,13.2,13.2,13.2c0.6,0,1,0.5,1,1s-0.5,1-1,1c-7.3,0-13.2,5.9-13.2,13.2
					C25.3,72,24.8,72.5,24.3,72.5z M15.5,57.2c4,1.5,7.2,4.7,8.7,8.7c1.6-4,4.7-7.2,8.7-8.7c-4-1.5-7.2-4.7-8.7-8.7
					C22.7,52.5,19.5,55.7,15.5,57.2z"/>
			</g>
			<g>
				<path class="st0" d="M59.5,33.2h2.7c1,0,1.8,0.8,1.8,1.8v26.7c0,1-0.8,1.8-1.8,1.8h-2.7c-1,0-1.8-0.8-1.8-1.8V35
					C57.6,34,58.4,33.2,59.5,33.2z"/>
				<path class="st1" d="M62.1,64.6h-2.7c-1.6,0-2.9-1.3-2.9-2.9V35c0-1.6,1.3-2.9,2.9-2.9h2.7c1.6,0,2.9,1.3,2.9,2.9v26.7
					C65,63.3,63.7,64.6,62.1,64.6z M59.5,34.2c-0.5,0-0.8,0.4-0.8,0.8v26.7c0,0.5,0.4,0.8,0.8,0.8h2.7c0.5,0,0.8-0.4,0.8-0.8V35
					c0-0.5-0.4-0.8-0.8-0.8H59.5z"/>
			</g>
			<g id="Combined-Shape">
				<path class="st0" d="M55,28.1h14V37H50v-3.8C52.6,32.9,54.7,30.8,55,28.1z"/>
				<path class="st1" d="M69.1,38H50c-0.6,0-1-0.5-1-1v-3.8c0-0.5,0.4-1,0.9-1c2.2-0.2,3.9-2,4.1-4.1c0.1-0.5,0.5-0.9,1-0.9h14
					c0.6,0,1,0.5,1,1V37C70.1,37.6,69.6,38,69.1,38z M51,36h17v-6.8H55.9c-0.6,2.4-2.5,4.2-4.9,4.9V36z"/>
			</g>
			<g>
				<path class="st0" d="M58.1,32.2c6,0,10.9,6.4,10.9,14.2c0-7.8,4.9-14.2,10.9-14.2c-6,0-10.9-6.4-10.9-14.2
					C69,25.8,64.1,32.2,58.1,32.2"/>
				<path d="M69,47.4c-0.6,0-1-0.5-1-1c0-7.3-4.4-13.2-9.8-13.2c-0.6,0-1-0.5-1-1s0.5-1,1-1c5.4,0,9.8-5.9,9.8-13.2c0-0.6,0.5-1,1-1
					s1,0.5,1,1c0,7.3,4.4,13.2,9.8,13.2c0.6,0,1,0.5,1,1s-0.5,1-1,1c-5.4,0-9.8,5.9-9.8,13.2C70,47,69.5,47.4,69,47.4z M62.4,32.2
					c2.9,1.5,5.3,4.4,6.6,8c1.3-3.7,3.6-6.6,6.6-8c-2.9-1.5-5.3-4.4-6.6-8C67.7,27.8,65.3,30.7,62.4,32.2z"/>
			</g>
		</g>
	</g>
</g>
</svg>
