<?xml version="1.0" encoding="utf-8"?>
<!-- Generator: Adobe Illustrator 23.0.3, SVG Export Plug-In . SVG Version: 6.00 Build 0)  -->
<svg version="1.1" id="Layer_1" xmlns="http://www.w3.org/2000/svg" xmlns:xlink="http://www.w3.org/1999/xlink" x="0px" y="0px"
	 viewBox="0 0 90 90" style="enable-background:new 0 0 90 90;" xml:space="preserve">
<style type="text/css">
	.st0{fill-rule:evenodd;clip-rule:evenodd;fill:#FFFFFF;}
	.st1{fill:#FE2780;}
	.st2{fill-rule:evenodd;clip-rule:evenodd;fill:#FE2780;}
</style>
<title>ico-tile-aidemenagere</title>
<desc>Created with Sketch.</desc>
<g id="Nouvelle-Home-Stootie">
	<g id="Artboard" transform="translate(-33.000000, -22.000000)">
		<g id="Group-28" transform="translate(33.000000, 22.000000)">
			<g id="Line-3">
				<path class="st0" d="M22.1,69.2h12.8c2.1-1.4,3.1-5.3,3.1-11.7s-2.4-14.1-7.3-23.1h-5.5c1.2,4,1.6,7.7,1.2,11
					c-0.6,4.9-5.8,5.8-6.8,12.2C18.9,61.8,19.8,65.7,22.1,69.2z"/>
				<path d="M34.9,70.3H22.1c-0.3,0-0.7-0.2-0.8-0.5c-2.4-3.7-3.3-7.9-2.6-12.4c0.6-3.7,2.4-5.7,4-7.4c1.3-1.5,2.5-2.7,2.7-4.7
					c0.4-3.1,0-6.7-1.2-10.5c-0.1-0.3,0-0.6,0.2-0.9c0.2-0.3,0.5-0.4,0.8-0.4h5.5c0.4,0,0.7,0.2,0.9,0.5c4.9,9.2,7.4,17.1,7.4,23.6
					c0,6.8-1.2,10.9-3.5,12.5C35.3,70.2,35.1,70.3,34.9,70.3z M22.6,68.2h11.9c1.2-1,2.4-3.7,2.4-10.7c0-6-2.3-13.5-6.9-22.1h-3.6
					c0.9,3.6,1.2,7,0.9,10.1c-0.3,2.7-1.8,4.3-3.3,5.9c-1.5,1.6-3,3.3-3.5,6.4C20,61.5,20.7,65.1,22.6,68.2z"/>
			</g>
			<g id="Line-4">
				<path class="st0" d="M22.5,25.6L19.8,31"/>
				<path d="M19.8,32c-0.2,0-0.3,0-0.4-0.1c-0.5-0.2-0.7-0.9-0.5-1.4l2.7-5.5c0.2-0.5,0.9-0.7,1.4-0.5c0.5,0.2,0.7,0.9,0.5,1.4
					l-2.7,5.5C20.6,31.8,20.2,32,19.8,32z"/>
			</g>
			<g id="Path">
				<path class="st0" d="M33.9,27.6h-3.5v2.7h-6.9c0-2.1-1.6-3.8-3.7-4.1l1.4-4.1h7.7L33.9,27.6z"/>
				<path d="M30.4,31.4h-6.9c-0.6,0-1-0.5-1-1c0-1.6-1.2-2.9-2.8-3.1c-0.3,0-0.6-0.2-0.7-0.5c-0.2-0.3-0.2-0.6-0.1-0.9l1.4-4.1
					c0.1-0.4,0.5-0.7,1-0.7h7.7c0.3,0,0.6,0.1,0.7,0.3l5,5.5c0.3,0.3,0.3,0.7,0.2,1.1c-0.2,0.4-0.5,0.6-0.9,0.6h-2.5v1.7
					C31.4,30.9,31,31.4,30.4,31.4z M24.4,29.3h5v-1.7c0-0.6,0.5-1,1-1h1.2l-3.1-3.4h-6.5l-0.8,2.4C22.8,26.2,24.1,27.6,24.4,29.3z"
					/>
			</g>
			<g id="Stroke-1-Copy">
				<path class="st0" d="M53.3,69.4c0-24.5,0-36.8,0-36.8s14.6,10.1,14.6,26.9v9.9H53.3z"/>
				<path class="st1" d="M67.9,70.4H53.3c-0.6,0-1-0.5-1-1l0-36.8c0-0.4,0.2-0.7,0.5-0.9c0.3-0.2,0.7-0.2,1,0.1
					c0.6,0.4,15,10.6,15,27.7v9.9C68.9,70,68.5,70.4,67.9,70.4z M54.3,68.4h12.6v-8.9c0-12.8-8.9-21.7-12.6-24.8L54.3,68.4z"/>
			</g>
			<g>
				<path class="st0" d="M44.2,69.4v-9.9c0-16.8,9.1-26.9,9.1-26.9s9.1,10.1,9.1,26.9v9.9H44.2z"/>
				<path class="st1" d="M62.4,70.4H44.2c-0.6,0-1-0.5-1-1v-9.9c0-17,9-27.2,9.4-27.6c0.4-0.4,1.1-0.4,1.5,0
					c0.4,0.4,9.4,10.6,9.4,27.6v9.9C63.4,70,63,70.4,62.4,70.4z M45.2,68.4h16.2v-8.9c0-13.4-5.9-22.5-8.1-25.3
					c-2.1,2.8-8.1,11.9-8.1,25.3V68.4z"/>
			</g>
			<g id="Stroke-1">
				<path class="st1" d="M42.5,43.5c-0.2,0-0.5-0.1-0.7-0.3c-0.4-0.4-0.4-1,0-1.4c0.9-1,1.4-2.2,1.4-3.5c0-1.3-0.5-2.5-1.4-3.5
					c-1.3-1.4-2-3.1-2-4.9c0-1.8,0.7-3.6,2-4.9c0.4-0.4,1-0.4,1.4,0c0.4,0.4,0.4,1,0,1.4c-0.9,1-1.4,2.2-1.4,3.5
					c0,1.3,0.5,2.6,1.4,3.5c1.3,1.4,2,3.1,2,4.9c0,1.8-0.7,3.6-2,4.9C43.1,43.4,42.8,43.5,42.5,43.5z"/>
			</g>
			<g id="Stroke-1-Copy-2">
				<path class="st1" d="M49,33.9c-0.3,0-0.5-0.1-0.7-0.3c-1.3-1.4-2-3.1-2-4.9c0-1.8,0.7-3.6,2-4.9c0.9-1,1.4-2.2,1.4-3.5
					c0-1.3-0.5-2.5-1.4-3.5c-0.4-0.4-0.4-1,0-1.4c0.4-0.4,1-0.4,1.4,0c1.3,1.4,2,3.1,2,4.9c0,1.8-0.7,3.6-2,4.9
					c-0.9,1-1.4,2.2-1.4,3.5c0,1.3,0.5,2.6,1.4,3.5c0.4,0.4,0.4,1,0,1.4C49.5,33.8,49.2,33.9,49,33.9z"/>
			</g>
			<g id="Oval-Copy-10">
				<ellipse class="st2" cx="53.3" cy="39.5" rx="1" ry="1"/>
			</g>
			<g id="Oval-Copy-2">
				<ellipse class="st2" cx="49.8" cy="46" rx="1" ry="1"/>
			</g>
			<g id="Oval-Copy-3">
				<ellipse class="st2" cx="47.8" cy="52.5" rx="1" ry="1"/>
			</g>
			<g id="Oval-Copy-4">
				<ellipse class="st2" cx="47.4" cy="59" rx="1" ry="1"/>
			</g>
			<g id="Oval-Copy-5">
				<ellipse class="st2" cx="47.4" cy="65.5" rx="1" ry="1"/>
			</g>
			<g id="Oval-Copy-6">
				<ellipse class="st2" cx="56.9" cy="46" rx="1" ry="1"/>
			</g>
			<g id="Oval-Copy-7">
				<ellipse class="st2" cx="58.9" cy="52.5" rx="1" ry="1"/>
			</g>
			<g id="Oval-Copy-8">
				<ellipse class="st2" cx="59.2" cy="59" rx="1" ry="1"/>
			</g>
			<g id="Oval-Copy-9">
				<ellipse class="st2" cx="59.2" cy="65.5" rx="1" ry="1"/>
			</g>
			<g id="Line-Copy-3">
				<path class="st0" d="M18,73.3h53.8"/>
				<path class="st1" d="M71.8,74.3H18c-0.6,0-1-0.5-1-1s0.5-1,1-1h53.8c0.6,0,1,0.5,1,1S72.4,74.3,71.8,74.3z"/>
			</g>
		</g>
	</g>
</g>
</svg>
